<?xml version="1.0" encoding="utf-8"?>
<!-- Generator: Adobe Illustrator 18.0.0, SVG Export Plug-In . SVG Version: 6.00 Build 0)  -->
<!DOCTYPE svg PUBLIC "-//W3C//DTD SVG 1.1//EN" "http://www.w3.org/Graphics/SVG/1.1/DTD/svg11.dtd">
<svg version="1.1" id="Camada_1" xmlns="http://www.w3.org/2000/svg" xmlns:xlink="http://www.w3.org/1999/xlink" x="0px" y="0px"
	 viewBox="0 0 104.9 23" enable-background="new 0 0 104.9 23" xml:space="preserve">
<g id="Camada_1">
	<g>
		<path fill="#2E368C" d="M102.3,0H84.4c-1.4,0-2.6,1.1-2.6,2.6v17.9c0,1.4,1.2,2.6,2.6,2.6h17.9c1.4,0,2.6-1.1,2.6-2.6V2.6
			C104.9,1.1,103.7,0,102.3,0z M99.8,12.8h-5.1v5.1h-2.6v-5.1H87v-2.6h5.1V5.1h2.6v5.1h5.1V12.8z"/>
		<g>
			<path fill="#4D4D4D" d="M0.5,6.8V6.2h2.1l3.3,7.9h0L9,6.2h1.9v0.6l-4.1,9.8H4.6L0.5,6.8z"/>
			<path fill="#4D4D4D" d="M13.6,11.8c0.1,2.5,1.3,3.4,3.5,3.4c1.5,0,2.5-0.4,3.2-1H21v1.4c-0.8,0.5-2.1,1.1-4.2,1.1
				c-3.5,0-5.5-2-5.5-5.3c0-3.3,2.3-5.4,5.3-5.4c3,0,4.8,1.6,4.8,5c0,0.3,0,0.6,0,0.7H13.6z M13.6,10.4h5.5c0-2.2-1-3-2.6-3
				C15,7.4,13.8,8.3,13.6,10.4z"/>
			<path fill="#4D4D4D" d="M25.1,9v7.6h-2.2V6.2h1.4c0.6,0,0.8,0.2,0.8,1.4c0.8-0.8,1.9-1.5,3.3-1.5c0.3,0,0.5,0,0.6,0.1v1.7
				c0,0-0.4,0-0.5,0C27,7.8,25.9,8.4,25.1,9z"/>
			<path fill="#4D4D4D" d="M36.8,7.5c1-0.7,2.5-1.4,4.1-1.4c1.2,0,2.2,0.4,2.6,1.5c1.1-0.9,2.7-1.5,4.3-1.5c1.6,0,2.9,0.7,2.9,2.8
				v7.8h-2.2V9.3c0-1.2-0.6-1.6-1.6-1.6c-1.2,0-2.2,0.5-3.1,1v7.8h-2.2V9.3c0-1.2-0.6-1.6-1.6-1.6c-1.2,0-2.2,0.5-3.1,1v7.8h-2.2
				V6.2H36C36.5,6.2,36.8,6.4,36.8,7.5z"/>
			<path fill="#4D4D4D" d="M59.2,15.4c-0.9,0.8-1.9,1.3-3.4,1.3c-2.1,0-3.6-1.1-3.6-3.1c0-2.1,1.9-3.1,4.5-3.1c1,0,1.7,0.1,2.5,0.3
				V9.4c0-1.2-0.8-1.8-2.3-1.8c-1.4,0-2.4,0.4-3.1,0.9H53V6.9c1-0.5,2.3-0.9,4.1-0.9c2.7,0,4.3,0.9,4.3,3.2v7.3h-0.9
				C59.7,16.6,59.4,16.4,59.2,15.4z M59.2,14.1v-2.2c-0.6-0.1-1.3-0.2-2.1-0.2c-1.5,0-2.6,0.5-2.6,1.8c0,1.3,0.9,1.8,2.1,1.8
				C57.7,15.3,58.5,14.8,59.2,14.1z"/>
			<path fill="#4D4D4D" d="M63.5,3.9c0-0.7,0.6-1.2,1.3-1.2s1.3,0.5,1.3,1.2c0,0.6-0.6,1.1-1.3,1.1S63.5,4.5,63.5,3.9z M63.6,16.6
				V6.2h1.3c0.9,0,1,0.2,1,1.5v8.8H63.6z"/>
			<path fill="#4D4D4D" d="M67.6,15.8v-1.6h0.7c0.5,0.5,1.5,0.9,2.9,0.9c1.6,0,2.4-0.5,2.4-1.5c0-0.9-0.6-1.2-2.4-1.5
				c-2.3-0.3-3.6-1.1-3.6-3c0-2,1.6-3,4.1-3c1.6,0,2.6,0.3,3.4,0.7v1.5h-0.7C73.9,8,73,7.6,71.8,7.6c-1.5,0-2.2,0.5-2.2,1.3
				c0,0.8,0.6,1.2,2.4,1.4c2.5,0.3,3.7,1.1,3.7,3.1c0,2-1.4,3.2-4.4,3.2C69.5,16.7,68.4,16.2,67.6,15.8z"/>
		</g>
	</g>
</g>
</svg>
