<?xml version="1.0" encoding="utf-8"?>
<!-- Generator: Adobe Illustrator 18.0.0, SVG Export Plug-In . SVG Version: 6.00 Build 0)  -->
<!DOCTYPE svg PUBLIC "-//W3C//DTD SVG 1.1//EN" "http://www.w3.org/Graphics/SVG/1.1/DTD/svg11.dtd">
<svg version="1.1" id="Camada_1" xmlns="http://www.w3.org/2000/svg" xmlns:xlink="http://www.w3.org/1999/xlink" x="0px" y="0px"
	 viewBox="0 0 114.3 38" enable-background="new 0 0 114.3 38" xml:space="preserve">
<g id="Camada_1">
	<g>
		<g>
			<g>
				<path fill="#2E368C" d="M29,0H18.4L0.3,19l16.4,19H29c2.3,0,4.2-1.9,4.2-4.2V4.2C33.2,1.9,31.3,0,29,0z M25.3,27.2l-2.5,2.4
					L12.3,19.2L22.9,8.7l2.5,2.4l-8.1,8L25.3,27.2z"/>
			</g>
		</g>
		<g>
			<path fill="#4D4D4D" d="M43.8,13.6v-0.8h2.8l4.4,10.8h0.1l4.2-10.8h2.6v0.8l-5.5,13.3h-3L43.8,13.6z"/>
			<path fill="#4D4D4D" d="M58.5,19.9c0-4.5,3.2-7.3,7.5-7.3s7.5,2.8,7.5,7.3c0,4.5-3.2,7.2-7.5,7.2S58.5,24.4,58.5,19.9z
				 M70.4,19.9c0-3.4-1.7-5.2-4.4-5.2c-2.6,0-4.4,1.8-4.4,5.2c0,3.4,1.7,5.1,4.4,5.1C68.7,25,70.4,23.3,70.4,19.9z"/>
			<path fill="#4D4D4D" d="M75.7,26.9V8.1h1.7c1.2,0,1.4,0.3,1.4,1.8v17.1H75.7z"/>
			<path fill="#4D4D4D" d="M80.5,12.8h1.9V9h3.1v3.8H89v1.9h-3.5v8.4c0,1.5,0.7,1.9,2.3,1.9h1.4v1.8c-0.6,0.1-1.4,0.3-2.5,0.3
				c-2.7,0-4.2-1-4.2-3.6v-8.7h-1.9V12.8z"/>
			<path fill="#4D4D4D" d="M99.6,25.4c-1.2,1.1-2.6,1.7-4.7,1.7c-2.8,0-4.9-1.5-4.9-4.2c0-2.9,2.6-4.3,6.1-4.3
				c1.4,0,2.3,0.1,3.4,0.4v-1.9c0-1.7-1.1-2.4-3.1-2.4c-1.9,0-3.3,0.5-4.3,1.2h-1v-2.1c1.4-0.6,3.1-1.2,5.6-1.2
				c3.7,0,5.8,1.2,5.8,4.3v10h-1.2C100.2,26.9,99.8,26.6,99.6,25.4z M99.5,23.6v-3c-0.9-0.2-1.8-0.3-2.9-0.3c-2.1,0-3.6,0.7-3.6,2.4
				c0,1.8,1.2,2.5,2.9,2.5C97.5,25.2,98.6,24.5,99.5,23.6z"/>
			<path fill="#4D4D4D" d="M108.6,16.6v10.3h-3.1V12.8h1.9c0.8,0,1.1,0.3,1.1,1.9c1-1.1,2.5-2.1,4.5-2.1c0.4,0,0.7,0.1,0.8,0.1v2.3
				c0,0-0.6,0-0.7,0C111.2,15,109.6,15.9,108.6,16.6z"/>
		</g>
	</g>
</g>
</svg>
