<?xml version="1.0" encoding="utf-8"?>
<!-- Generator: Adobe Illustrator 18.0.0, SVG Export Plug-In . SVG Version: 6.00 Build 0)  -->
<!DOCTYPE svg PUBLIC "-//W3C//DTD SVG 1.1//EN" "http://www.w3.org/Graphics/SVG/1.1/DTD/svg11.dtd">
<svg version="1.1" id="Camada_1" xmlns="http://www.w3.org/2000/svg" xmlns:xlink="http://www.w3.org/1999/xlink" x="0px" y="0px"
	 viewBox="0 0 72 72" enable-background="new 0 0 72 72" xml:space="preserve">
<g id="Camada_1">
	<g>
		<path fill="#29BAD7" d="M36,0C16.1,0,0,16.1,0,36c0,19.8,16.1,36,36,36c19.8,0,36-16.1,36-36C72,16.1,55.8,0,36,0z M52,27.8
			c0,0.4,0,0.7,0,1.1c0,10.9-8.3,23.6-23.6,23.6c-4.7,0-9-1.4-12.7-3.7c0.6,0.1,1.3,0.1,2,0.1c3.9,0,7.5-1.3,10.3-3.5
			c-3.6-0.1-6.7-2.5-7.7-5.8c0.5,0.1,1,0.1,1.6,0.1c0.8,0,1.5-0.1,2.2-0.3c-3.8-0.8-6.6-4.1-6.6-8.1c0,0,0-0.1,0-0.1
			c1.1,0.6,2.4,1,3.8,1c-2.2-1.5-3.7-4-3.7-6.9c0-1.5,0.4-2.9,1.1-4.2c4.1,5,10.2,8.3,17.1,8.7c-0.1-0.6-0.2-1.2-0.2-1.9
			c0-4.6,3.7-8.3,8.3-8.3c2.4,0,4.5,1,6,2.6c1.9-0.4,3.7-1.1,5.3-2c-0.6,1.9-1.9,3.6-3.6,4.6c1.7-0.2,3.3-0.6,4.8-1.3
			C55.1,25.1,53.7,26.6,52,27.8z"/>
	</g>
</g>
</svg>
