<?xml version="1.0" encoding="utf-8"?>
<!-- Generator: Adobe Illustrator 18.0.0, SVG Export Plug-In . SVG Version: 6.00 Build 0)  -->
<!DOCTYPE svg PUBLIC "-//W3C//DTD SVG 1.1//EN" "http://www.w3.org/Graphics/SVG/1.1/DTD/svg11.dtd">
<svg version="1.1" id="Layer_1" xmlns="http://www.w3.org/2000/svg" xmlns:xlink="http://www.w3.org/1999/xlink" x="0px" y="0px"
	 viewBox="0 0 1200 442.4" enable-background="new 0 0 1200 442.4" xml:space="preserve">
<path fill-rule="evenodd" clip-rule="evenodd" fill="#2E3192" d="M1053.5,197.9c16.2,0,29.3,11.5,29.3,25.7
	c0,14.1-13.2,25.7-29.3,25.7s-29.3-11.5-29.3-25.7C1024.2,209.4,1037.4,197.9,1053.5,197.9z M1002.7,364c30.6-2.4,63.2,1.6,94.8,2.4
	c21.9,7,12.1,27.7-12.7,29.3c-31.7,0.1-53.2-2-74.3-4.1C994.9,384.7,992.3,375.4,1002.7,364z M971.4,271.2
	c-56.9-28.2-55.5-108.4,79.2-112.4c35,1.4,62.7,5.4,74.3,15.5c8.7-15.8,22.4-29.1,70.4-25.2c0,15.2,0,30.4,0,45.6
	c-17.4-12.1-32.4-16.7-42-4.9c37.7,57.4-2.5,78.5-53.8,94.5c-31.9,4.6-56.7,3.3-78.2-0.8c-12.1,10-9.8,17.9,6.8,23.6
	c27,0.8,54.1,1.6,81.1,2.4c113.1,4.6,104.9,112.1,2,123c-121,9.9-182.1-5.1-193.6-40.7c-2.9-21.4,7.2-36.4,30.3-44.8
	C919.1,317.6,922.1,291.8,971.4,271.2z M798.4,348.6c0-19,0-38,0-57c3.3-5.2,6.5-10.3,9.8-15.5c0-39.9,0-79.8,0-119.7
	c-3.9,0-7.8,0-11.7,0c0-18.5,0-37,0-55.4c3.9,0,7.8,0,11.8,0c-1.6-41.3,5.4-76.5,43-89.5c24.2-9.2,54.3-8.7,89,1.6
	c0,17.6,0,35.3,0,52.9c-27.9-3.5-36,10.9-35.2,33.4c9.8,0,19.6,0,29.3,0c0,19,0,38,0,57c-10.5,0-20.9,0-31.4,0
	c0,40.5,0,80.9,0,121.4c4.6,4.6,9.2,9.2,13.7,13.8c0,19,0,38,0,57C877.3,348.6,837.8,348.6,798.4,348.6z M534.5,156.3
	c0-18.7,0-37.5,0-56.2c35.5,0,71,0,106.6,0c0,56.2,0,112.4,0,168.6c8.1,15.7,20.2,19.5,36.2,11.4c0-34.8,0-69.5,0-104.3
	c-1.9-7.9-4.5-15.5-11.7-21.2c0-17.9,0-35.8,0-53.8c35.5,0,71,0,106.6,0c0,58.4,0,116.7,0,175.1c2.6,4.9,6.5,9.8,11.7,14.7
	c0,19.3,0,38.6,0,57.8c-34.2,0-68.4,0-102.7,0c0-5.7,0-11.4,0-17.1c-52.5,31.8-129.4,25.7-133.9-38.3c0-40.5,0-80.9,0-121.4
	C544.6,165.3,539.7,160.7,534.5,156.3z M426,166.9c0,38.8,0,77.7,0,116.5c-23.8,2.7-35.8-2.2-36.2-14.7c0.7-31.2,1.3-62.4,2-93.7
	C395.3,161.5,406.7,158.8,426,166.9z M429.9,348.6c0-6,0-11.9,0-17.9c-54.1,37.5-132,21.7-133.9-35c0-46.2,0-92.3,0-138.5
	c2-44.8,37.7-83.4,129-44.8c-0.3-10.9-0.7-21.7-1-32.6c-2.3-5.2-5.9-9.2-10.8-12.2c0-19,0-38,0-57c35.5,0,71,0,106.6,0
	c0,89.6,0,179.2,0,268.8c2.6,4.9,6.5,9.8,11.7,14.7c0,18.2,0,36.4,0,54.6C497.6,348.6,463.8,348.6,429.9,348.6z M153.2,201.1H119
	l15.7-116.5L153.2,201.1z M4.8,349.5c0-20.7,0-41.3,0-62c13.2-15,17.2-30.1,16.9-45.1c14.7-76.6,29.3-153.1,44-229.7
	c50.7,0,101.5,0,152.2,0c16.9,78.9,33.8,157.8,50.7,236.8c1.1,13.6,3.9,27.3,18.6,40.9c0,19.3,0,38.6,0,57.9c-45.1,0-90.2,0-135.3,0
	c0-19.8,0-39.5,0-59.3c11.9-7.8,14.8-16.8,8.5-26.8c-15.8,0-31.6,0-47.4,0c-5.2,13.3-1.2,22.2,11.8,26.8c0,19.7,0,39.5,0,59.2
	C84.9,348.6,44.9,349.1,4.8,349.5z"/>
<path fill="#0E2252" d="M897.9,418.3c1.5-2.5,2.7-5.3,3.4-8.4c0.7-3.1,1-6.6,1-10.5c0-4-0.4-7.6-1.2-10.9c-0.8-3.3-1.9-6.1-3.5-8.5
	c-1.5-2.3-3.4-4.1-5.7-5.4c-2.3-1.3-4.9-1.9-7.9-1.9c-3.3,0-6.1,0.8-8.4,2.2c-2.3,1.5-4.2,3.5-5.7,6c-1.4,2.4-2.4,5.2-3.1,8.4
	c-0.7,3.2-1,6.6-1,10.1c0,3.9,0.4,7.4,1.1,10.6c0.7,3.2,1.8,6,3.4,8.4c1.5,2.4,3.4,4.3,5.6,5.6c2.3,1.3,5,2,8.1,2c3,0,5.6-0.7,8-2
	C894.5,422.7,896.4,420.8,897.9,418.3z M904.1,377.3c2.6,2.7,4.6,5.9,6.1,9.6c1.5,3.8,2.2,7.9,2.2,12.5c0,4.6-0.7,8.8-2.2,12.5
	c-1.5,3.8-3.6,6.9-6.2,9.6c-2.6,2.6-5.6,4.6-8.9,6c-3.4,1.4-7,2.1-10.9,2.1c-4.1,0-7.9-0.8-11.3-2.3c-3.5-1.5-6.4-3.6-8.9-6.3
	c-2.5-2.6-4.4-5.8-5.9-9.6c-1.4-3.8-2.1-7.8-2.1-12.1c0-4.7,0.7-8.9,2.2-12.6c1.5-3.7,3.5-6.9,6.2-9.6c2.6-2.7,5.6-4.7,9-6.1
	c3.4-1.4,7-2.1,10.8-2.1c3.9,0,7.6,0.7,11,2.2C898.6,372.7,901.5,374.7,904.1,377.3z M851.9,386.2H849c-0.3-1-0.7-2.1-1.3-3.5
	c-0.6-1.3-1.4-2.6-2.2-3.8c-0.8-1.3-1.7-2.3-2.7-3.3c-1-0.9-1.9-1.5-2.8-1.6c-0.8-0.1-1.9-0.2-3.2-0.3c-1.3-0.1-2.5-0.1-3.6-0.1
	h-2.4v46.3c0,0.9,0.2,1.7,0.6,2.5c0.4,0.7,1.1,1.3,2,1.7c0.5,0.2,1.5,0.4,3.1,0.8c1.6,0.3,2.8,0.5,3.7,0.5v2.9h-27.7v-2.9
	c0.8-0.1,1.9-0.2,3.5-0.3c1.6-0.2,2.7-0.4,3.3-0.6c0.9-0.4,1.6-0.9,2-1.5c0.4-0.7,0.6-1.6,0.6-2.7v-46.6h-2.4c-0.9,0-1.9,0-3.2,0.1
	c-1.3,0-2.5,0.1-3.6,0.3c-0.9,0.1-1.9,0.6-2.8,1.6c-1,1-1.9,2.1-2.7,3.3c-0.8,1.2-1.6,2.5-2.2,3.9c-0.6,1.4-1.1,2.5-1.3,3.4h-2.9
	v-15.7h51.2V386.2z M778.4,404.7l-8.9-22.4l-8.7,22.4H778.4z M802.1,428.3h-24.5v-2.9c2.1-0.1,3.9-0.4,5.4-0.8
	c1.4-0.4,2.1-0.9,2.1-1.5c0-0.3,0-0.5-0.1-0.9c-0.1-0.4-0.1-0.7-0.3-0.9l-4.9-13h-20.6c-0.8,1.9-1.4,3.5-1.9,5
	c-0.5,1.4-0.9,2.7-1.3,3.9c-0.4,1.2-0.6,2.1-0.7,2.9c-0.1,0.7-0.2,1.3-0.2,1.8c0,1.1,0.9,1.9,2.6,2.5c1.7,0.6,3.7,0.9,5.9,1.1v2.9
	h-22.1v-2.9c0.7-0.1,1.6-0.2,2.7-0.5c1.1-0.3,2-0.6,2.7-1c1.1-0.7,1.9-1.5,2.6-2.3c0.6-0.8,1.2-1.9,1.8-3.3c3-7.2,6.2-15.4,9.8-24.5
	c3.6-9,6.7-17.1,9.5-24.2h3.3l19.6,49.9c0.4,1.1,0.9,1.9,1.4,2.6c0.5,0.7,1.3,1.3,2.2,1.9c0.6,0.4,1.5,0.7,2.5,1
	c1,0.3,1.9,0.4,2.6,0.4V428.3z M718.7,429.7c-3.5,0-6.9-0.7-10.1-2c-3.2-1.3-6.1-3.3-8.5-5.9c-2.5-2.5-4.4-5.7-5.9-9.3
	c-1.5-3.7-2.2-7.8-2.2-12.5c0-4.6,0.7-8.8,2.1-12.6c1.4-3.8,3.4-7,6-9.7c2.5-2.7,5.5-4.8,8.9-6.2c3.4-1.5,7.1-2.2,11-2.2
	c2.9,0,5.5,0.3,7.9,1.1c2.3,0.7,4.6,1.7,6.7,3l1.7-2.8h3.3l0.4,20.6h-3.4c-0.4-2-1.1-4.2-2-6.5c-0.9-2.4-1.9-4.3-3.1-6
	c-1.3-1.9-2.9-3.3-4.7-4.3c-1.8-1-3.9-1.6-6.3-1.6c-2.7,0-5.2,0.6-7.5,1.8c-2.3,1.2-4.3,2.9-6,5.2c-1.6,2.2-2.9,5-3.8,8.4
	c-0.9,3.4-1.4,7.2-1.4,11.4c0,3.7,0.5,7.1,1.4,10.2c0.9,3.1,2.3,5.8,4.1,8.1c1.8,2.3,3.9,4.1,6.3,5.4c2.4,1.3,5.1,2,8.1,2
	c2.2,0,4.3-0.3,6.2-1c1.9-0.7,3.5-1.6,4.9-2.8c1.4-1.2,2.6-2.5,3.6-4.1c1-1.5,1.9-3.2,2.6-5l3.1,1.5c-2.4,5.7-5.5,9.8-9.4,12.3
	C728.8,428.4,724.2,429.7,718.7,429.7z M685.5,428.3H659v-2.9c0.7-0.1,1.8-0.1,3.2-0.3c1.4-0.1,2.4-0.3,3-0.5c0.9-0.3,1.6-0.8,2-1.4
	c0.4-0.6,0.6-1.5,0.6-2.5v-41.9c0-0.9-0.1-1.7-0.5-2.4c-0.3-0.6-1-1.2-2.1-1.6c-0.8-0.3-1.9-0.6-3.1-0.9c-1.3-0.3-2.3-0.4-3.1-0.5
	v-2.9h26.5v2.9c-0.9,0-1.9,0.1-3.1,0.3c-1.2,0.2-2.2,0.4-3.1,0.7c-1,0.3-1.8,0.9-2.1,1.6c-0.4,0.7-0.5,1.6-0.5,2.4v41.9
	c0,0.9,0.2,1.7,0.6,2.4c0.4,0.7,1.1,1.3,2,1.7c0.6,0.2,1.5,0.5,2.8,0.7c1.3,0.3,2.4,0.4,3.3,0.4V428.3z M642.5,399.7
	c0-3.9-0.5-7.4-1.6-10.5c-1-3.1-2.6-5.9-4.6-8.2c-1.9-2.2-4.2-4-7-5.3c-2.8-1.3-5.9-1.9-9.3-1.9c-1.1,0-2.4,0-3.8,0.1
	c-1.4,0-2.5,0.1-3.2,0.1v44.5c0,2.5,0.7,4.2,2.2,5.1c1.5,1,3.7,1.4,6.8,1.4c3.5,0,6.6-0.6,9.2-1.8c2.6-1.2,4.7-2.9,6.4-5.1
	c1.7-2.3,3-4.9,3.7-7.9C642.1,407.1,642.5,403.6,642.5,399.7z M652.6,399.7c0,4.9-0.9,9.2-2.8,12.8c-1.9,3.6-4.3,6.6-7.3,8.9
	c-3,2.3-6.4,4-10.2,5.2c-3.8,1.1-7.7,1.7-11.7,1.7h-24.3v-2.9c0.8,0,1.9-0.1,3.1-0.2c1.3-0.2,2.1-0.3,2.5-0.5
	c0.8-0.3,1.4-0.9,1.8-1.6c0.4-0.7,0.6-1.5,0.6-2.5v-41.7c0-0.9-0.2-1.8-0.5-2.5c-0.3-0.7-0.9-1.3-1.9-1.8c-0.9-0.4-1.8-0.7-2.8-0.9
	c-1-0.2-1.8-0.3-2.6-0.4v-2.9h25.7c3.5,0,7,0.5,10.4,1.6c3.4,1.1,6.4,2.5,8.9,4.3c3.4,2.4,6.2,5.6,8.1,9.5
	C651.6,389.8,652.6,394.4,652.6,399.7z M591.6,373.4c-0.8,0-2,0.2-3.6,0.7c-1.6,0.4-2.8,0.8-3.4,1.3c-1,0.7-1.7,2-2,3.9
	c-0.4,1.9-0.5,4.4-0.5,7.3v42.4h-3.6l-35.6-47.3v29.8c0,3.3,0.2,5.9,0.6,7.7c0.4,1.8,1.1,3.1,2,3.8c0.6,0.6,1.9,1.2,3.9,1.7
	c2,0.5,3.3,0.8,3.9,0.8v2.9h-24.1v-2.9c0.7-0.1,2-0.3,3.8-0.8c1.8-0.5,2.9-0.9,3.3-1.3c1-0.8,1.6-1.9,2-3.5c0.4-1.6,0.5-4.2,0.5-8
	v-28.5c0-1.3-0.2-2.5-0.7-3.8c-0.4-1.3-1-2.2-1.8-2.9c-1-0.9-2.3-1.7-4-2.3c-1.7-0.6-3.1-1-4.1-1v-2.9H545l33,44.1v-27.5
	c0-3.4-0.2-6-0.7-7.8c-0.4-1.8-1.1-3-1.9-3.6c-0.8-0.5-2-1-3.8-1.5c-1.8-0.5-3.1-0.8-4-0.8v-2.9h23.9V373.4z M524,428.3h-26.5v-2.9
	c0.7-0.1,1.8-0.1,3.2-0.3c1.4-0.1,2.4-0.3,3-0.5c0.9-0.3,1.6-0.8,2-1.4c0.4-0.6,0.6-1.5,0.6-2.5v-41.9c0-0.9-0.1-1.7-0.5-2.4
	c-0.3-0.6-1-1.2-2.1-1.6c-0.8-0.3-1.9-0.6-3.1-0.9c-1.3-0.3-2.3-0.4-3.1-0.5v-2.9H524v2.9c-0.9,0-1.9,0.1-3.1,0.3
	c-1.2,0.2-2.2,0.4-3.1,0.7c-1,0.3-1.8,0.9-2.1,1.6c-0.4,0.7-0.5,1.6-0.5,2.4v41.9c0,0.9,0.2,1.7,0.6,2.4c0.4,0.7,1.1,1.3,2,1.7
	c0.6,0.2,1.5,0.5,2.8,0.7c1.3,0.3,2.4,0.4,3.3,0.4V428.3z M487.3,401.8c1.2,1.3,2.2,2.8,2.8,4.5c0.6,1.6,0.9,3.5,0.9,5.6
	c0,5.1-1.9,9.3-5.8,12.6c-3.8,3.3-8.6,5-14.3,5c-2.6,0-5.2-0.4-7.9-1.2c-2.6-0.8-4.9-1.8-6.8-2.9l-1.8,3h-3.3l-0.6-19.8h3.4
	c0.7,2.4,1.5,4.7,2.4,6.6c0.9,2,2.1,3.8,3.7,5.5c1.4,1.6,3.1,2.9,5,3.8c1.9,0.9,4.2,1.4,6.7,1.4c1.9,0,3.6-0.3,5-0.7
	c1.4-0.5,2.6-1.2,3.5-2.1c0.9-0.9,1.5-1.9,2-3.2c0.4-1.2,0.6-2.6,0.6-4.2c0-2.3-0.7-4.5-2-6.5c-1.3-2-3.3-3.5-5.9-4.5
	c-1.8-0.7-3.8-1.5-6.2-2.4c-2.3-0.8-4.3-1.7-6-2.4c-3.3-1.5-5.9-3.4-7.7-5.8c-1.8-2.4-2.7-5.5-2.7-9.3c0-2.2,0.5-4.3,1.4-6.2
	c0.9-1.9,2.2-3.6,3.9-5.1c1.6-1.4,3.5-2.5,5.7-3.3c2.2-0.8,4.5-1.2,6.8-1.2c2.7,0,5.1,0.4,7.3,1.2c2.1,0.8,4.1,1.8,5.8,2.9l1.7-2.8
	h3.3l0.3,19.2h-3.3c-0.6-2.2-1.3-4.3-2-6.3c-0.8-2-1.8-3.8-3-5.5c-1.2-1.6-2.6-2.8-4.3-3.8c-1.7-0.9-3.8-1.4-6.3-1.4
	c-2.6,0-4.8,0.8-6.7,2.5c-1.9,1.7-2.8,3.7-2.8,6.1c0,2.5,0.6,4.6,1.8,6.2c1.2,1.6,2.9,3,5.2,4c2,1,4,1.8,5.9,2.5
	c1.9,0.7,3.8,1.4,5.7,2.2c1.7,0.7,3.2,1.5,4.8,2.4C484.8,399.5,486.1,400.6,487.3,401.8z"/>
</svg>
