<?xml version="1.0" encoding="utf-8"?>
<!-- Generator: Adobe Illustrator 18.0.0, SVG Export Plug-In . SVG Version: 6.00 Build 0)  -->
<!DOCTYPE svg PUBLIC "-//W3C//DTD SVG 1.1//EN" "http://www.w3.org/Graphics/SVG/1.1/DTD/svg11.dtd">
<svg version="1.1" id="Camada_1" xmlns="http://www.w3.org/2000/svg" xmlns:xlink="http://www.w3.org/1999/xlink" x="0px" y="0px"
	 viewBox="0 0 72 72" enable-background="new 0 0 72 72" xml:space="preserve">
<path fill="#E52622" d="M36,0C16.1,0,0,16.1,0,36c0,19.9,16.1,36,36,36s36-16.1,36-36C72,16.1,55.9,0,36,0z M36,9
	c3.6,0,7,0.7,10.1,2v18.8L26.9,10.6C29.7,9.6,32.8,9,36,9z M9.8,42.5C9.3,40.4,9,38.2,9,36c0-10.2,5.7-19.1,14-23.7l8.5,8.5
	L9.8,42.5z M22.5,59.4c-5-2.9-9-7.3-11.3-12.7l11.3-11.3V59.4z M36,63c-3.6,0-7-0.7-10.1-2V49.5h33.5C54.7,57.6,46,63,36,63z
	 M61,46.1H49.5V12.6C57.6,17.3,63,26,63,36C63,39.6,62.3,43,61,46.1z"/>
</svg>
