<?xml version="1.0" encoding="utf-8"?>
<!-- Generator: Adobe Illustrator 18.0.0, SVG Export Plug-In . SVG Version: 6.00 Build 0)  -->
<!DOCTYPE svg PUBLIC "-//W3C//DTD SVG 1.1//EN" "http://www.w3.org/Graphics/SVG/1.1/DTD/svg11.dtd">
<svg version="1.1" id="Camada_1" xmlns="http://www.w3.org/2000/svg" xmlns:xlink="http://www.w3.org/1999/xlink" x="0px" y="0px"
	 viewBox="0 0 73 73" enable-background="new 0 0 73 73" xml:space="preserve">
<g id="Camada_1">
	<g>
		<path fill="#784E4E" d="M36.5,43.8c4,0,7.3-3.3,7.3-7.3c0-1.6-0.5-3.1-1.4-4.3c-1.3-1.8-3.5-3-5.9-3c-2.4,0-4.6,1.2-5.9,3
			c-0.9,1.2-1.4,2.7-1.4,4.3C29.2,40.5,32.5,43.8,36.5,43.8z"/>
		<path fill="#784E4E" d="M52.4,27.6v-6.1v-0.9l-0.9,0l-6.1,0l0,7L52.4,27.6z"/>
		<path fill="#784E4E" d="M36.5,0C16.4,0,0,16.4,0,36.5C0,56.6,16.4,73,36.5,73S73,56.6,73,36.5C73,16.4,56.6,0,36.5,0z M57.2,32.2
			v17c0,4.4-3.6,8-8,8H23.8c-4.4,0-8-3.6-8-8v-17v-8.5c0-4.4,3.6-8,8-8h25.5c4.4,0,8,3.6,8,8V32.2z"/>
		<path fill="#784E4E" d="M47.8,36.5c0,6.3-5.1,11.4-11.3,11.4s-11.4-5.1-11.4-11.4c0-1.5,0.3-2.9,0.8-4.3h-6.2v17c0,2.2,1.8,4,4,4
			h25.5c2.2,0,4-1.8,4-4v-17H47C47.5,33.5,47.8,35,47.8,36.5z"/>
	</g>
</g>
</svg>
