<?xml version="1.0" encoding="utf-8"?>
<!-- Generator: Adobe Illustrator 18.0.0, SVG Export Plug-In . SVG Version: 6.00 Build 0)  -->
<!DOCTYPE svg PUBLIC "-//W3C//DTD SVG 1.1//EN" "http://www.w3.org/Graphics/SVG/1.1/DTD/svg11.dtd">
<svg version="1.1" id="Camada_1" xmlns="http://www.w3.org/2000/svg" xmlns:xlink="http://www.w3.org/1999/xlink" x="0px" y="0px"
	 viewBox="0 0 200.6 54.8" enable-background="new 0 0 200.6 54.8" xml:space="preserve">
<g>
	<path fill="#30358C" d="M0.9,34v-5.1h0.9c1.2,0,1.9-0.1,2.2-0.3c0.4-0.3,0.6-1,0.6-2.2V8.2h7.4V27c0,2.8-0.5,4.7-1.5,5.6
		c-1,1-3,1.5-6,1.5C4.1,34.1,2.9,34,0.9,34z M4.7,6.1V1.6h7.4v4.5H4.7z"/>
	<path fill="#30358C" d="M15.1,17.7c0-3.3,1.1-5.9,3.4-7.6c2.3-1.8,5.6-2.6,9.9-2.6c4.3,0,7.6,0.9,9.9,2.6c2.3,1.8,3.4,4.3,3.4,7.6
		c0,3.3-1.1,5.9-3.4,7.6C36,27.1,32.7,28,28.4,28c-4.3,0-7.6-0.9-9.9-2.6C16.3,23.6,15.1,21,15.1,17.7z M28.4,12.4
		c-1.7,0-3,0.5-4,1.4c-1,0.9-1.5,2.2-1.5,4s0.5,3.1,1.5,4c1,0.9,2.3,1.4,4,1.4c1.7,0,3.1-0.5,4-1.4c1-0.9,1.4-2.2,1.4-4
		s-0.5-3.1-1.4-4C31.5,12.8,30.1,12.4,28.4,12.4z"/>
	<path fill="#30358C" d="M44.8,27.2v-19h7.3V12h0.1c0.7-1.3,1.8-2.3,3.2-3.1c1.4-0.8,2.9-1.2,4.6-1.2c1,0,1.8,0.1,2.5,0.2v6.9
		c-1.1-0.4-2.5-0.6-4.1-0.6c-4.1,0-6.1,1.9-6.1,5.6v7.4H44.8z"/>
	<path fill="#30358C" d="M64.7,27.2v-19h7.2V11H72c1.8-2.1,4.4-3.2,8-3.2c2.4,0,4.4,0.6,5.8,1.7c1.5,1.2,2.3,3,2.3,5.3v12.5h-7.4
		V16.9c0-2.4-1.3-3.6-3.9-3.6c-1.4,0-2.5,0.4-3.3,1.1c-0.9,0.8-1.3,1.9-1.3,3.4v9.3H64.7z"/>
	<path fill="#30358C" d="M99.7,14.2h-7.4c0.3-2.6,1.7-4.3,4-5.3c1.8-0.7,4.4-1.1,7.8-1.1c3.9,0,6.7,0.4,8.6,1.2
		c2.3,1,3.5,2.7,3.5,5.2v9.6c0,1.4,0.3,2.5,0.8,3.4h-7.4c-0.2-0.5-0.3-1.1-0.4-1.8c-1.8,1.7-4.7,2.5-8.9,2.5C94,28,91,26,91,22.1
		c0-2.1,0.7-3.6,2.1-4.6c1.3-0.9,3.3-1.4,6.1-1.6l7.4-0.5c0.8,0,1.3-0.1,1.6-0.3c0.4-0.2,0.7-0.6,0.7-1.3c0-1.4-1.6-2-4.7-2
		C101.5,11.8,100,12.6,99.7,14.2z M109,19.5v-1.2c-0.7,0.2-1.6,0.4-2.8,0.5l-5,0.6c-1.4,0.2-2.1,0.8-2.1,1.9c0,1.5,1.1,2.3,3.3,2.3
		c2.1,0,3.8-0.4,4.9-1.1C108.4,21.8,109,20.8,109,19.5z"/>
	<path fill="#30358C" d="M120.6,27.2V1.6h7.4v25.6H120.6z"/>
	<path fill="#30358C" d="M163,27.2V25h-0.1c-1.6,2-4,3-7.2,3c-3.4,0-6.1-0.9-8.1-2.7c-2-1.8-3-4.4-3-7.6c0-2.8,1-5.2,2.9-7
		c2-1.9,4.8-2.9,8.2-2.9c3.4,0,5.8,1,7.1,2.9v-9h7.4v25.5H163z M162.8,17.7c0-1.5-0.5-2.7-1.4-3.5c-0.9-0.9-2.2-1.3-3.9-1.3
		c-3.5,0-5.3,1.6-5.3,4.8c0,3.2,1.8,4.8,5.3,4.8c1.7,0,3-0.4,3.9-1.3C162.4,20.4,162.8,19.2,162.8,17.7z"/>
	<path fill="#30358C" d="M173.1,17.7c0-3.3,1.1-5.9,3.4-7.6s5.6-2.6,9.9-2.6c4.3,0,7.6,0.9,9.9,2.6c2.3,1.8,3.4,4.3,3.4,7.6
		c0,3.3-1.1,5.9-3.4,7.6c-2.3,1.8-5.6,2.6-9.9,2.6c-4.3,0-7.6-0.9-9.9-2.6S173.1,21,173.1,17.7z M186.4,12.4c-1.7,0-3,0.5-4,1.4
		c-1,0.9-1.5,2.2-1.5,4s0.5,3.1,1.5,4c1,0.9,2.3,1.4,4,1.4c1.7,0,3.1-0.5,4-1.4c1-0.9,1.4-2.2,1.4-4s-0.5-3.1-1.4-4
		C189.5,12.8,188.1,12.4,186.4,12.4z"/>
</g>
<g>
	<g>
		<path fill="#DDA503" d="M15.4,53.1V34.6h5.1v1.8h0.1c1.2-1.4,2.9-2.2,5.1-2.2c2.4,0,4.4,0.6,5.8,1.9c1.4,1.3,2.1,3.1,2.1,5.5
			c0,2-0.7,3.7-2.1,5c-1.5,1.4-3.4,2.1-5.8,2.1c-2.3,0-4-0.6-5.1-1.8v6.1H15.4z M20.7,41.4c0,1.1,0.3,1.9,1,2.5
			c0.7,0.6,1.6,0.9,2.8,0.9c2.5,0,3.8-1.2,3.8-3.5S27,38,24.5,38c-1.2,0-2.1,0.3-2.8,0.9C21,39.5,20.7,40.4,20.7,41.4z"/>
		<path fill="#DDA503" d="M35.9,48.2V34.6h5.2v2.7h0c0.5-0.9,1.3-1.7,2.3-2.2s2.1-0.8,3.3-0.8c0.7,0,1.3,0,1.8,0.2v5
			c-0.8-0.3-1.8-0.5-2.9-0.5c-2.9,0-4.4,1.3-4.4,4v5.3H35.9z"/>
		<path fill="#DDA503" d="M49.4,41.4c0-2.4,0.8-4.2,2.5-5.5c1.6-1.3,4-1.9,7-1.9s5.4,0.6,7.1,1.9c1.6,1.3,2.4,3.1,2.4,5.5
			c0,2.4-0.8,4.2-2.4,5.5c-1.6,1.3-4,1.9-7.1,1.9s-5.4-0.6-7-1.9C50.2,45.6,49.4,43.8,49.4,41.4z M58.9,37.6c-1.2,0-2.2,0.3-2.9,1
			c-0.7,0.6-1,1.6-1,2.8s0.3,2.2,1,2.9c0.7,0.6,1.6,1,2.9,1c1.2,0,2.2-0.3,2.9-1c0.7-0.7,1-1.6,1-2.9s-0.3-2.2-1-2.8
			C61.1,37.9,60.1,37.6,58.9,37.6z"/>
		<path fill="#DDA503" d="M69.1,38.1v-3.5h2.8v-1.2c0-1.4,0.3-2.3,1-2.9c0.8-0.7,2.4-1,4.7-1c1,0,2,0.1,3.1,0.2v3h-2.4
			c-0.5,0-0.8,0.1-0.9,0.2c-0.1,0.1-0.2,0.4-0.2,0.8v0.8h3.5v3.5h-3.5v10h-5.3v-10H69.1z"/>
		<path fill="#DDA503" d="M94.3,44.2h5.6c-0.4,1.3-1.2,2.3-2.6,3.1c-1.6,1-3.8,1.5-6.4,1.5c-6.3,0-9.5-2.5-9.5-7.3
			c0-2.4,0.9-4.2,2.6-5.5c1.6-1.2,3.9-1.9,6.8-1.9c3,0,5.3,0.7,6.9,2c1.7,1.4,2.5,3.5,2.5,6.2v0.4H86.9c0.3,2,1.7,3,4.3,3
			C92.5,45.7,93.5,45.2,94.3,44.2z M86.9,39.9h7.9c-0.4-1.8-1.7-2.8-3.9-2.8S87.3,38.1,86.9,39.9z"/>
		<path fill="#DDA503" d="M101.7,44h6.2c0.1,1.1,1.2,1.6,3.1,1.6c1.6,0,2.4-0.4,2.4-1.2c0-0.3-0.1-0.6-0.4-0.7
			c-0.3-0.1-0.7-0.3-1.4-0.3l-4.7-0.6c-3.1-0.4-4.7-1.6-4.7-3.8c0-1.8,0.7-3,2.2-3.8c1.3-0.7,3.3-1,6-1c5.4,0,8.2,1.5,8.5,4.5h-6
			c-0.1-1-1-1.4-2.9-1.4c-1.6,0-2.4,0.4-2.4,1.3c0,0.5,0.6,0.8,1.7,1l4.6,0.5c1.9,0.2,3.3,0.6,4.1,1.3s1.3,1.6,1.3,2.9
			c0,3.1-2.9,4.7-8.7,4.7C104.7,48.7,101.8,47.2,101.7,44z"/>
		<path fill="#DDA503" d="M120.6,44h6.2c0.2,1.1,1.2,1.6,3.1,1.6c1.6,0,2.4-0.4,2.4-1.2c0-0.3-0.1-0.6-0.4-0.7
			c-0.3-0.1-0.7-0.3-1.4-0.3l-4.7-0.6c-3.1-0.4-4.7-1.6-4.7-3.8c0-1.8,0.7-3,2.2-3.8c1.3-0.7,3.3-1,6-1c5.4,0,8.2,1.5,8.4,4.5h-5.9
			c-0.1-1-1-1.4-2.9-1.4c-1.6,0-2.4,0.4-2.4,1.3c0,0.5,0.6,0.8,1.7,1l4.6,0.5c1.9,0.2,3.3,0.6,4.1,1.3s1.3,1.6,1.3,2.9
			c0,3.1-2.9,4.7-8.7,4.7C123.7,48.7,120.7,47.2,120.6,44z"/>
		<path fill="#DDA503" d="M139.6,41.4c0-2.4,0.8-4.2,2.5-5.5s4-1.9,7-1.9s5.4,0.6,7.1,1.9c1.6,1.3,2.4,3.1,2.4,5.5
			c0,2.4-0.8,4.2-2.4,5.5c-1.6,1.3-4,1.9-7.1,1.9s-5.4-0.6-7-1.9S139.6,43.8,139.6,41.4z M149.1,37.6c-1.2,0-2.2,0.3-2.9,1
			c-0.7,0.6-1,1.6-1,2.8s0.3,2.2,1,2.9c0.7,0.6,1.6,1,2.9,1c1.2,0,2.2-0.3,2.9-1c0.7-0.7,1-1.6,1-2.9s-0.3-2.2-1-2.8
			C151.3,37.9,150.3,37.6,149.1,37.6z"/>
		<path fill="#DDA503" d="M160.8,48.2V34.6h5.2v2.7h0c0.5-0.9,1.3-1.7,2.3-2.2s2.1-0.8,3.3-0.8c0.7,0,1.3,0,1.8,0.2v5
			c-0.8-0.3-1.8-0.5-2.9-0.5c-2.9,0-4.4,1.3-4.4,4v5.3H160.8z"/>
	</g>
</g>
</svg>
