<?xml version="1.0" encoding="utf-8"?>
<!-- Generator: Adobe Illustrator 18.0.0, SVG Export Plug-In . SVG Version: 6.00 Build 0)  -->
<!DOCTYPE svg PUBLIC "-//W3C//DTD SVG 1.1//EN" "http://www.w3.org/Graphics/SVG/1.1/DTD/svg11.dtd">
<svg version="1.1" id="Camada_1" xmlns="http://www.w3.org/2000/svg" xmlns:xlink="http://www.w3.org/1999/xlink" x="0px" y="0px"
	 viewBox="0 0 189.7 65.8" enable-background="new 0 0 189.7 65.8" xml:space="preserve">
<path fill-rule="evenodd" clip-rule="evenodd" fill="#036BB1" d="M183.7,5.5h6v55h-6V5.5z"/>
<g>
	<path fill="#30358C" d="M2.4,21.5V9.5h7.4v9.8c0,2.9,1.3,4.3,3.9,4.3c1.4,0,2.5-0.4,3.3-1.2s1.3-1.9,1.3-3.4V9.5h7.4v19h-7.2V26
		h-0.1c-1.8,2.1-4.4,3.2-8,3.2C5.1,29.2,2.4,26.7,2.4,21.5z M9.7,7.3l3.2-4.9h9l-5.2,4.9H9.7z"/>
	<path fill="#30358C" d="M29.8,28.4V2.8h7.4v25.6H29.8z"/>
	<path fill="#30358C" d="M39.4,14.4V9.5h3.9v-6h7.4v6h4.9v4.9h-4.9V22c0,0.9,0.2,1.5,0.6,1.7c0.3,0.2,0.9,0.2,1.8,0.2
		c0.4,0,1.3,0,2.6,0v4.6c-1.7,0.2-3.6,0.3-5.6,0.3c-2.5,0-4.2-0.4-5.2-1.1c-1.1-0.8-1.6-2.2-1.6-4.2v-9.2H39.4z"/>
	<path fill="#30358C" d="M58.9,7.3V2.8h7.4v4.5H58.9z M58.9,28.4v-19h7.4v19H58.9z"/>
	<path fill="#30358C" d="M70.4,28.4v-19h7.2v2.8h0.1c2.2-2.2,4.8-3.3,7.6-3.3c3.1,0,5.3,1.1,6.7,3.3c2.2-2.2,4.9-3.3,8-3.3
		c2.2,0,3.9,0.5,5.1,1.4c1.5,1.1,2.2,2.8,2.2,5v13H100V17.4c0-1.9-1.1-2.8-3.2-2.8c-1.3,0-2.4,0.3-3.1,0.9s-1.1,1.4-1.1,2.4v10.6
		h-7.4V17.4c0-1.9-1.1-2.8-3.2-2.8c-1.3,0-2.4,0.3-3.1,0.9s-1.1,1.4-1.1,2.4v10.6H70.4z"/>
	<path fill="#30358C" d="M119,15.4h-7.4c0.3-2.6,1.7-4.3,4-5.3c1.8-0.7,4.4-1.1,7.8-1.1c3.9,0,6.7,0.4,8.6,1.2
		c2.3,1,3.5,2.7,3.5,5.2V25c0,1.4,0.3,2.5,0.8,3.4h-7.4c-0.2-0.5-0.3-1.1-0.4-1.8c-1.8,1.7-4.7,2.5-8.9,2.5c-6.2,0-9.3-2-9.3-5.9
		c0-2.1,0.7-3.6,2.1-4.6c1.3-0.9,3.3-1.4,6.1-1.6l7.4-0.5c0.8,0,1.3-0.1,1.6-0.3c0.4-0.2,0.7-0.6,0.7-1.3c0-1.4-1.6-2-4.7-2
		C120.9,13,119.4,13.8,119,15.4z M128.3,20.7v-1.2c-0.7,0.2-1.6,0.4-2.8,0.5l-5,0.6c-1.4,0.2-2.1,0.8-2.1,1.9c0,1.5,1.1,2.3,3.3,2.3
		c2.1,0,3.8-0.4,4.9-1.1C127.8,23.1,128.3,22.1,128.3,20.7z"/>
	<path fill="#30358C" d="M138.8,22.5h8.6c0.2,1.5,1.7,2.2,4.3,2.2c2.3,0,3.4-0.6,3.4-1.7c0-0.5-0.2-0.8-0.6-1c-0.4-0.2-1-0.4-2-0.5
		l-6.6-0.8c-4.4-0.5-6.5-2.3-6.5-5.3c0-2.5,1-4.2,3.1-5.3c1.8-1,4.7-1.4,8.4-1.4c7.6,0,11.5,2.1,11.8,6.3h-8.3c-0.1-1.4-1.4-2-4-2
		c-2.3,0-3.4,0.6-3.4,1.8c0,0.7,0.8,1.2,2.4,1.3l6.4,0.7c2.6,0.3,4.6,0.9,5.8,1.8c1.2,0.9,1.8,2.3,1.8,4.1c0,4.4-4,6.6-12.1,6.6
		C143.1,29.2,138.9,27,138.8,22.5z"/>
</g>
<g>
	<path fill="#D58F07" d="M4.4,50.6V37h5.1v2h0.1c1.3-1.5,3.2-2.3,5.7-2.3c1.7,0,3.1,0.4,4.1,1.2c1.1,0.9,1.6,2.1,1.6,3.8v8.9h-5.3
		v-7.3c0-1.7-0.9-2.6-2.8-2.6c-1,0-1.8,0.3-2.3,0.8c-0.6,0.6-1,1.4-1,2.5v6.7H4.4z"/>
	<path fill="#D58F07" d="M23.1,43.8c0-2.4,0.8-4.2,2.5-5.5c1.6-1.3,4-1.9,7-1.9s5.4,0.6,7,1.9c1.6,1.3,2.5,3.1,2.5,5.5
		s-0.8,4.2-2.5,5.4c-1.6,1.3-4,1.9-7,1.9s-5.4-0.6-7-1.9C23.9,48,23.1,46.2,23.1,43.8z M32.6,40c-1.2,0-2.2,0.3-2.9,1
		c-0.7,0.6-1,1.6-1,2.8s0.3,2.2,1,2.8s1.6,1,2.9,1c1.2,0,2.2-0.3,2.9-1s1-1.6,1-2.8s-0.3-2.2-1-2.8C34.8,40.3,33.8,40,32.6,40z"/>
	<path fill="#D58F07" d="M42.8,40.5V37h2.8v-4.3h5.3V37h3.5v3.5h-3.5v5.4c0,0.6,0.1,1.1,0.4,1.2c0.2,0.1,0.6,0.2,1.3,0.2
		c0.3,0,0.9,0,1.9,0v3.3c-1.2,0.2-2.5,0.2-4,0.2c-1.8,0-3-0.3-3.7-0.8c-0.8-0.5-1.2-1.5-1.2-3v-6.6H42.8z"/>
	<path fill="#D58F07" d="M56.3,35.5l2.3-3.5H65l-3.7,3.5H56.3z M56.8,50.6V37h5.3v13.6H56.8z"/>
	<path fill="#D58F07" d="M77.6,45h5.6c-0.4,2-1.3,3.5-2.8,4.5c-1.5,1-3.7,1.6-6.6,1.6c-6.3,0-9.5-2.4-9.5-7.3c0-2.4,0.9-4.2,2.6-5.5
		c1.6-1.2,3.9-1.8,6.9-1.8c5.7,0,8.7,1.9,9.1,5.8h-5.5c-0.3-1.6-1.5-2.3-3.6-2.3c-1.3,0-2.2,0.3-2.9,1s-1,1.6-1,2.8s0.3,2.2,1,2.8
		c0.7,0.7,1.7,1,3,1C76.1,47.6,77.3,46.8,77.6,45z"/>
	<path fill="#D58F07" d="M85.4,35.5v-3.2h5.3v3.2H85.4z M85.4,50.6V37h5.3v13.6H85.4z"/>
	<path fill="#D58F07" d="M99.1,41.3h-5.3c0.2-1.8,1.2-3.1,2.9-3.8c1.3-0.5,3.1-0.8,5.6-0.8c2.8,0,4.8,0.3,6.2,0.9
		c1.7,0.7,2.5,2,2.5,3.7v6.8c0,1,0.2,1.8,0.6,2.5h-5.3c-0.1-0.4-0.2-0.8-0.3-1.3c-1.3,1.2-3.4,1.8-6.4,1.8c-4.4,0-6.6-1.4-6.6-4.2
		c0-1.5,0.5-2.6,1.5-3.3c0.9-0.6,2.4-1,4.3-1.1l5.3-0.4c0.5,0,0.9-0.1,1.1-0.2c0.3-0.2,0.5-0.5,0.5-0.9c0-1-1.1-1.4-3.3-1.4
		C100.4,39.6,99.4,40.1,99.1,41.3z M105.8,45.1v-0.8c-0.5,0.2-1.1,0.3-2,0.4l-3.6,0.4c-1,0.1-1.5,0.6-1.5,1.4c0,1.1,0.8,1.7,2.4,1.7
		c1.5,0,2.7-0.3,3.5-0.8C105.4,46.7,105.8,46,105.8,45.1z"/>
	<path fill="#D58F07" d="M113.2,46.3h6.2c0.1,1,1.2,1.6,3.1,1.6c1.6,0,2.4-0.4,2.4-1.2c0-0.4-0.1-0.6-0.4-0.7s-0.7-0.3-1.4-0.3
		l-4.7-0.6c-3.1-0.4-4.7-1.6-4.7-3.8c0-1.8,0.7-3,2.2-3.8c1.3-0.7,3.3-1,6-1c5.4,0,8.2,1.5,8.5,4.5h-6c-0.1-1-1-1.5-2.8-1.5
		c-1.6,0-2.4,0.4-2.4,1.3c0,0.5,0.6,0.8,1.7,0.9l4.6,0.5c1.9,0.2,3.3,0.6,4.1,1.3c0.9,0.6,1.3,1.6,1.3,2.9c0,3.1-2.9,4.7-8.7,4.7
		C116.3,51.1,113.3,49.5,113.2,46.3z"/>
</g>
<g>
	<g>
		<path fill="#DFAA00" d="M21,41.6c0-1.6-0.5-2.9-1.6-3.8c-1-0.8-2.4-1.2-4.1-1.2c-2.5,0-4.4,0.8-5.7,2.3H9.5V37H4.4V44l5.3,0v0
			c0-1.1,0.3-1.9,1-2.5c0.6-0.5,1.4-0.8,2.3-0.8c1.8,0,2.8,0.9,2.8,2.6v0.7l5.3,0V41.6z"/>
		<path fill="#DFAA00" d="M39.6,38.3c-1.6-1.3-4-1.9-7-1.9s-5.4,0.6-7,1.9c-1.6,1.3-2.5,3.1-2.5,5.5c0,0,0,0.1,0,0.1l5.6,0
			c0,0,0-0.1,0-0.1c0-1.3,0.3-2.2,1-2.9s1.6-1,2.9-1c1.2,0,2.2,0.3,2.9,1c0.6,0.6,1,1.5,1,2.6c0,0,0,0.1,0,0.1c0,0.1,0,0.1,0,0.2
			l5.6,0c0,0,0,0,0-0.1C42.1,41.4,41.3,39.6,39.6,38.3z"/>
		<path fill="#DFAA00" d="M23.1,44C23.1,43.9,23.1,43.9,23.1,44"/>
		<path fill="#DFAA00" d="M28.7,43.9c0,0,0,0.1,0,0.1"/>
		<path fill="#DFAA00" d="M45.6,43.9v-3.4h-2.8V37h2.8v-4.3h5.3V37h3.5v3.5h-3.5v3.3"/>
		<path fill="#DFAA00" d="M56.3,35.5l2.3-3.5H65l-3.7,3.5H56.3z M56.8,43.9V37h5.3v6.9"/>
		<path fill="#DFAA00" d="M64.4,44c0-0.1,0-0.1,0-0.2c0-2.4,0.9-4.2,2.6-5.5c1.6-1.2,3.9-1.8,6.9-1.8c5.7,0,8.7,1.9,9.1,5.8h-5.5
			c-0.3-1.6-1.5-2.3-3.6-2.3c-1.3,0-2.2,0.3-2.9,1c-0.7,0.7-1,1.6-1,2.8c0,0,0,0.1,0,0.1"/>
		<path fill="#DFAA00" d="M85.4,35.5v-3.2h5.3v3.2H85.4z M85.4,43.9V37h5.3v6.9"/>
		<path fill="#DFAA00" d="M108.5,37.5c-1.3-0.6-3.4-0.9-6.2-0.9c-2.5,0-4.3,0.3-5.6,0.8c-1.7,0.7-2.6,2-2.9,3.8h5.3
			c0.3-1.1,1.3-1.7,3.2-1.7c2.2,0,3.3,0.5,3.3,1.5c0,0.4-0.2,0.8-0.5,0.9c-0.2,0.1-0.6,0.2-1.1,0.2l-5.3,0.3c-2,0.1-3.4,0.5-4.3,1.2
			c-0.1,0.1-0.2,0.2-0.3,0.3l9.9,0c0.7-0.1,1.4-0.1,1.9,0l5.1,0v-2.7C110.9,39.5,110.1,38.3,108.5,37.5z"/>
		<path fill="#DFAA00" d="M114.9,43.9c-0.8-0.6-1.2-1.5-1.2-2.6c0-1.8,0.7-3,2.2-3.8c1.3-0.7,3.3-1,6-1c5.4,0,8.2,1.5,8.5,4.5h-6
			c-0.1-1-1-1.4-2.8-1.4c-1.6,0-2.4,0.4-2.4,1.3c0,0.5,0.6,0.8,1.7,0.9l4.6,0.5c1.9,0.2,3.3,0.6,4.1,1.3c0.2,0.1,0.3,0.2,0.4,0.4"/>
	</g>
</g>
</svg>
