<?xml version="1.0" encoding="utf-8"?>
<!-- Generator: Adobe Illustrator 18.0.0, SVG Export Plug-In . SVG Version: 6.00 Build 0)  -->
<!DOCTYPE svg PUBLIC "-//W3C//DTD SVG 1.1//EN" "http://www.w3.org/Graphics/SVG/1.1/DTD/svg11.dtd">
<svg version="1.1" id="Camada_1" xmlns="http://www.w3.org/2000/svg" xmlns:xlink="http://www.w3.org/1999/xlink" x="0px" y="0px"
	 viewBox="0 0 189.7 65.8" enable-background="new 0 0 189.7 65.8" xml:space="preserve">
<path fill-rule="evenodd" clip-rule="evenodd" fill="#036BB1" d="M183.7,5.5h6v55h-6V5.5z"/>
<g>
	<path fill="#30358C" d="M2.4,21.5V9.5h7.4v9.8c0,2.9,1.3,4.3,3.9,4.3c1.4,0,2.5-0.4,3.3-1.2s1.3-1.9,1.3-3.4V9.5h7.4v19h-7.2V26
		h-0.1c-1.8,2.1-4.4,3.2-8,3.2C5.1,29.2,2.4,26.7,2.4,21.5z M9.7,7.3l3.2-4.9h9l-5.2,4.9H9.7z"/>
	<path fill="#30358C" d="M29.8,28.4V2.8h7.4v25.6H29.8z"/>
	<path fill="#30358C" d="M39.4,14.4V9.5h3.9v-6h7.4v6h4.9v4.9h-4.9V22c0,0.9,0.2,1.5,0.6,1.7c0.3,0.2,0.9,0.2,1.8,0.2
		c0.4,0,1.3,0,2.6,0v4.6c-1.7,0.2-3.6,0.3-5.6,0.3c-2.5,0-4.2-0.4-5.2-1.1c-1.1-0.8-1.6-2.2-1.6-4.2v-9.2H39.4z"/>
	<path fill="#30358C" d="M58.9,7.3V2.8h7.4v4.5H58.9z M58.9,28.4v-19h7.4v19H58.9z"/>
	<path fill="#30358C" d="M70.4,28.4v-19h7.2v2.8h0.1c2.2-2.2,4.8-3.3,7.6-3.3c3.1,0,5.3,1.1,6.7,3.3c2.2-2.2,4.9-3.3,8-3.3
		c2.2,0,3.9,0.5,5.1,1.4c1.5,1.1,2.2,2.8,2.2,5v13H100V17.4c0-1.9-1.1-2.8-3.2-2.8c-1.3,0-2.4,0.3-3.1,0.9c-0.7,0.6-1.1,1.4-1.1,2.4
		v10.6h-7.4V17.4c0-1.9-1.1-2.8-3.2-2.8c-1.3,0-2.4,0.3-3.1,0.9c-0.7,0.6-1.1,1.4-1.1,2.4v10.6H70.4z"/>
	<path fill="#30358C" d="M110.3,19c0-3.3,1.1-5.9,3.4-7.6c2.3-1.8,5.6-2.6,9.9-2.6c4.3,0,7.6,0.9,9.9,2.6c2.3,1.8,3.4,4.3,3.4,7.6
		c0,3.3-1.1,5.9-3.4,7.6c-2.3,1.8-5.6,2.6-9.9,2.6c-4.3,0-7.6-0.9-9.9-2.6C111.4,24.8,110.3,22.3,110.3,19z M123.6,13.6
		c-1.7,0-3,0.5-4,1.4c-1,0.9-1.5,2.2-1.5,4s0.5,3.1,1.5,4c1,0.9,2.3,1.4,4,1.4c1.7,0,3.1-0.5,4-1.4c1-0.9,1.4-2.2,1.4-4
		s-0.5-3.1-1.4-4C126.6,14.1,125.3,13.6,123.6,13.6z"/>
	<path fill="#30358C" d="M138.8,22.5h8.6c0.2,1.5,1.7,2.2,4.3,2.2c2.3,0,3.4-0.6,3.4-1.7c0-0.5-0.2-0.8-0.6-1c-0.4-0.2-1-0.4-2-0.5
		l-6.6-0.8c-4.4-0.5-6.5-2.3-6.5-5.3c0-2.5,1-4.2,3.1-5.3c1.8-1,4.7-1.4,8.4-1.4c7.6,0,11.5,2.1,11.8,6.3h-8.3c-0.1-1.4-1.4-2-4-2
		c-2.3,0-3.4,0.6-3.4,1.8c0,0.7,0.8,1.2,2.4,1.3l6.4,0.7c2.6,0.3,4.6,0.9,5.8,1.8c1.2,0.9,1.8,2.3,1.8,4.1c0,4.4-4,6.6-12.1,6.6
		C143.1,29.2,138.9,27,138.8,22.5z"/>
</g>
<g>
	<g>
		<path fill="#D58F07" d="M9.7,41.3H4.4c0.2-1.8,1.2-3.1,2.9-3.8c1.3-0.5,3.1-0.8,5.6-0.8c2.8,0,4.8,0.3,6.1,0.9
			c1.6,0.7,2.5,2,2.5,3.7v6.8c0,1,0.2,1.8,0.5,2.5h-5.3c-0.1-0.4-0.2-0.8-0.3-1.3c-1.3,1.2-3.4,1.8-6.4,1.8c-4.4,0-6.6-1.4-6.6-4.2
			c0-1.5,0.5-2.6,1.5-3.3c0.9-0.6,2.4-1,4.3-1.1l5.3-0.4c0.5,0,0.9-0.1,1.1-0.2c0.3-0.1,0.5-0.5,0.5-0.9c0-1-1.1-1.5-3.3-1.5
			C11,39.6,9.9,40.1,9.7,41.3z M16.3,45.1v-0.8c-0.5,0.2-1.1,0.3-2,0.4L10.7,45c-1,0.1-1.5,0.6-1.5,1.4c0,1.1,0.8,1.6,2.4,1.6
			c1.5,0,2.7-0.3,3.5-0.8C15.9,46.7,16.3,46,16.3,45.1z"/>
		<path fill="#D58F07" d="M24.6,50.6V37h5.2v2.7h0c0.5-0.9,1.3-1.6,2.3-2.2c1-0.5,2.1-0.8,3.3-0.8c0.7,0,1.3,0,1.8,0.1v5
			c-0.8-0.3-1.8-0.5-2.9-0.5c-2.9,0-4.4,1.3-4.4,4v5.3H24.6z"/>
		<path fill="#D58F07" d="M37.5,40.5V37h2.8v-4.3h5.3V37H49v3.5h-3.5v5.4c0,0.6,0.1,1.1,0.4,1.2c0.2,0.1,0.6,0.2,1.3,0.2
			c0.3,0,0.9,0,1.9,0v3.3c-1.2,0.2-2.5,0.2-4,0.2c-1.8,0-3-0.3-3.7-0.8c-0.8-0.5-1.2-1.5-1.2-3v-6.6H37.5z"/>
		<path fill="#D58F07" d="M51.4,35.5v-3.2h5.3v3.2H51.4z M51.4,50.6V37h5.3v13.5H51.4z"/>
		<path fill="#D58F07" d="M72.5,38.7V37h5.2v12.3c0,2.3-0.7,3.9-2.1,4.9s-3.7,1.5-6.9,1.5c-2.9,0-5-0.3-6.4-0.9
			c-1.6-0.7-2.6-2-2.9-3.7h5.9c0.2,1.1,1.3,1.6,3.2,1.6c1.5,0,2.5-0.3,3.1-0.8c0.6-0.5,0.9-1.4,0.9-2.7v-1C71.3,49.4,69.4,50,67,50
			c-2.7,0-4.8-0.6-6.2-1.9c-1.2-1.2-1.8-2.7-1.8-4.7c0-1.9,0.7-3.5,2-4.7c1.4-1.3,3.5-2,6.1-2C69.6,36.7,71.5,37.4,72.5,38.7
			L72.5,38.7z M64.5,43.4c0,0.9,0.3,1.7,1,2.3c0.7,0.6,1.7,0.9,3,0.9c2.6,0,3.9-1.1,3.9-3.2c0-1-0.3-1.8-0.9-2.4
			c-0.7-0.6-1.7-0.9-3-0.9c-1.3,0-2.3,0.3-3,0.9C64.9,41.7,64.5,42.4,64.5,43.4z"/>
		<path fill="#D58F07" d="M79.7,43.8c0-2.4,0.8-4.2,2.5-5.5c1.6-1.3,4-1.9,7-1.9s5.4,0.6,7.1,1.9c1.6,1.3,2.4,3.1,2.4,5.5
			s-0.8,4.2-2.4,5.4c-1.6,1.3-4,1.9-7.1,1.9s-5.4-0.6-7-1.9C80.6,48,79.7,46.2,79.7,43.8z M89.2,40c-1.2,0-2.2,0.3-2.9,1
			c-0.7,0.6-1,1.6-1,2.9s0.3,2.2,1,2.9c0.7,0.6,1.6,1,2.9,1c1.2,0,2.2-0.3,2.9-1c0.7-0.7,1-1.6,1-2.9s-0.3-2.2-1-2.9
			S90.5,40,89.2,40z"/>
		<path fill="#D58F07" d="M100.1,46.3h6.2c0.1,1.1,1.2,1.6,3.1,1.6c1.6,0,2.4-0.4,2.4-1.2c0-0.4-0.1-0.6-0.4-0.7
			c-0.3-0.1-0.7-0.3-1.4-0.3l-4.7-0.6c-3.1-0.4-4.7-1.6-4.7-3.8c0-1.8,0.7-3,2.2-3.8c1.3-0.7,3.3-1,6-1c5.4,0,8.2,1.5,8.4,4.5h-5.9
			c-0.1-1-1-1.4-2.9-1.4c-1.6,0-2.4,0.4-2.4,1.3c0,0.5,0.6,0.8,1.7,0.9l4.6,0.5c1.9,0.2,3.3,0.6,4.1,1.3s1.3,1.6,1.3,2.9
			c0,3.1-2.9,4.7-8.7,4.7C103.2,51.1,100.2,49.5,100.1,46.3z"/>
	</g>
</g>
<g>
	<g>
		<path fill="#DFAA00" d="M19,37.5c-1.3-0.6-3.4-0.9-6.1-0.9c-2.5,0-4.4,0.3-5.6,0.8c-1.7,0.7-2.6,2-2.9,3.8h5.3
			c0.3-1.1,1.3-1.7,3.2-1.7c2.2,0,3.3,0.5,3.3,1.5c0,0.4-0.2,0.8-0.5,0.9c-0.2,0.1-0.6,0.2-1.1,0.2l-5.3,0.4c-2,0.1-3.4,0.5-4.3,1.1
			c-0.1,0.1-0.2,0.2-0.4,0.3l16.9,0v-2.6C21.5,39.5,20.6,38.3,19,37.5z"/>
		<path fill="#DFAA00" d="M24.6,43.9V37h5.2v2.7h0c0.5-0.9,1.3-1.6,2.3-2.2c1-0.5,2.1-0.8,3.3-0.8c0.7,0,1.3,0,1.8,0.1v5
			c-0.8-0.3-1.8-0.5-2.9-0.5c-2.3,0-3.7,0.9-4.2,2.6"/>
		<path fill="#DFAA00" d="M40.2,43.9v-3.3h-2.8V37h2.8v-4.3h5.3V37H49v3.5h-3.5v3.3"/>
		<path fill="#DFAA00" d="M51.4,35.5v-3.2h5.3v3.2H51.4z M51.4,43.9V37h5.3v6.8"/>
		<path fill="#DFAA00" d="M72.5,37v1.7h0c-1-1.4-2.9-2.1-5.5-2.1c-2.6,0-4.6,0.7-6.1,2c-1.3,1.2-2,2.8-2,4.7c0,0.2,0,0.4,0,0.6
			l5.7,0c0,0,0,0,0,0h-0.1c0-0.2,0-0.3,0-0.5c0-1,0.3-1.7,1-2.3c0.7-0.6,1.7-0.9,3-0.9c1.3,0,2.3,0.3,3,0.9c0.6,0.6,0.9,1.4,0.9,2.4
			c0,0.2,0,0.3,0,0.4c0,0,0,0,0,0l5.3,0V37H72.5z"/>
		<path fill="#DFAA00" d="M96.3,38.3c-1.6-1.3-4-1.9-7.1-1.9s-5.4,0.6-7,1.9c-1.6,1.3-2.5,3.1-2.5,5.5c0,0,0,0.1,0,0.1l5.6,0
			c0,0,0,0,0,0c0,0,0-0.1,0-0.1c0-1.3,0.3-2.2,1-2.9c0.7-0.6,1.6-1,2.9-1c1.2,0,2.2,0.3,2.9,1s1,1.6,1,2.9c0,0,0,0,0,0.1
			c0,0,0,0,0,0l5.6,0c0,0,0-0.1,0-0.1C98.7,41.4,97.9,39.6,96.3,38.3z"/>
		<path fill="#DFAA00" d="M101.8,43.9c-0.8-0.6-1.3-1.5-1.3-2.6c0-1.8,0.7-3,2.2-3.8c1.3-0.7,3.3-1,6-1c5.4,0,8.2,1.5,8.4,4.5h-5.9
			c-0.1-1-1-1.4-2.9-1.4c-1.6,0-2.4,0.4-2.4,1.3c0,0.5,0.6,0.8,1.7,0.9l4.6,0.5c1.9,0.2,3.3,0.6,4.1,1.3c0.2,0.1,0.3,0.3,0.5,0.4"/>
	</g>
</g>
</svg>
